<svg width="89" height="24" viewBox="0 0 89 24" fill="none" xmlns="http://www.w3.org/2000/svg">
<rect width="89" height="24" rx="12" fill="#F7F7F7"/>
<path d="M22.9997 9.43984H16.9997C16.7235 9.43984 16.4997 9.66369 16.4997 9.93984C16.4997 10.216 16.7235 10.4398 16.9997 10.4398H22.9997C23.2758 10.4398 23.4997 10.216 23.4997 9.93984C23.4997 9.66369 23.2758 9.43984 22.9997 9.43984Z" fill="black"/>
<path fill-rule="evenodd" clip-rule="evenodd" d="M23.2597 6.37984H23.333C25.174 6.37984 26.6663 7.87222 26.6663 9.71317V15.7132C26.6663 17.5541 25.174 19.0465 23.333 19.0465H16.6663C15.7823 19.0465 14.9344 18.6953 14.3093 18.0702C13.6842 17.4451 13.333 16.5972 13.333 15.7132V9.71317C13.333 7.87222 14.8254 6.37984 16.6663 6.37984H16.7263V5.1665C16.7263 4.89036 16.9502 4.6665 17.2263 4.6665C17.5025 4.6665 17.7263 4.89036 17.7263 5.1665V6.37984H22.2597V5.1665C22.2597 4.89036 22.4835 4.6665 22.7597 4.6665C23.0358 4.6665 23.2597 4.89036 23.2597 5.1665V6.37984ZM23.333 18.0465C24.6217 18.0465 25.6663 17.0018 25.6663 15.7132V9.71317C25.6663 8.42451 24.6217 7.37984 23.333 7.37984H16.6663C15.3777 7.37984 14.333 8.42451 14.333 9.71317V15.7132C14.333 17.0018 15.3777 18.0465 16.6663 18.0465H23.333Z" fill="black"/>
<path d="M40.5664 6.53125V8.71094H42.1367V9.48438H40.5664V11.793H39.6523V6.53125H40.5664ZM32.9258 11.2891V7H33.8516V10.4922C35.3281 10.498 36.8574 10.3926 38.5508 10.0469L38.668 10.8203C36.8867 11.1836 35.3223 11.2832 33.7578 11.2891H32.9258ZM33.9219 13.0352V12.2969H40.5664V14.8398H34.8594V16.0586H40.9531V16.8086H33.9453V14.1133H39.6523V13.0352H33.9219ZM51.1016 6.53125V10.6797H52.5781V11.4648H51.1016V16.9492H50.1758V6.53125H51.1016ZM42.6406 14.0898C43.918 13.1406 44.2871 11.1367 44.293 9.67188V8.37109H42.9805V7.59766H45.957V8.37109H45.1602V9.67188C45.166 10.8027 45.3242 12.502 46.1914 13.6328C47.0352 12.5254 47.2109 10.8613 47.2227 9.67188V8.37109H46.4141V7.59766H49.3086V8.37109H48.0898V9.67188C48.0898 11.2012 48.4473 13.1582 49.7422 14.0898L49.1328 14.7695C48.3594 14.1719 47.9023 13.1816 47.6562 12.1035C47.4277 13.1992 46.9883 14.2363 46.1797 14.8516C45.3828 14.2363 44.9492 13.1816 44.7148 12.0918C44.4688 13.1699 44.0117 14.166 43.25 14.7695L42.6406 14.0898ZM59.7383 8.5C59.7383 9.95312 60.793 11.3242 62.3164 11.875L61.8008 12.5898C60.6582 12.1387 59.7441 11.2363 59.2988 10.0996C58.8594 11.3594 57.9102 12.3555 56.6797 12.8477L56.1875 12.0977C57.752 11.5234 58.8301 10.0645 58.8359 8.46484V7.17578H59.7383V8.5ZM58.0742 16.7266V13.457H59V15.9531H65.0469V16.7266H58.0742ZM61.5664 9.76562V8.99219H63.8867V6.54297H64.8125V14.3477H63.8867V9.76562H61.5664ZM71.0586 7.29297V8.06641H67.8945V9.36719H70.9414V10.0938H67.8945V11.5352C69.4121 11.5293 70.3613 11.4707 71.4805 11.2539L71.5742 12.0156C70.3496 12.2559 69.3652 12.3027 67.6719 12.3086H67.0156V7.29297H71.0586ZM68.375 14.1484V13.3984H75.3945V16.9492H74.4922V14.1484H68.375ZM72.1953 12.7891V6.74219H73.0508V9.26172H74.5156V6.54297H75.3945V12.8594H74.5156V10.0117H73.0508V12.7891H72.1953Z" fill="black"/>
</svg>
