<svg width="159" height="36" viewBox="0 0 159 36" fill="none" xmlns="http://www.w3.org/2000/svg">
<path d="M68.0469 11.7148H68.3203C68.5742 11.7148 68.8411 11.9818 69.1211 12.5156C69.1211 13.1146 68.9421 14.3613 68.584 16.2559C71.6113 18.2415 73.125 19.9342 73.125 21.334C72.9492 21.9134 72.5911 22.2682 72.0508 22.3984C71.2435 22.3984 69.9089 21.2428 68.0469 18.9316H67.7832C67.7832 19.5241 67.6953 19.9668 67.5195 20.2598L67.7832 20.7969C67.5293 21.8711 67.0833 22.4928 66.4453 22.6621C65.3776 22.6621 64.8438 22.2194 64.8438 21.334C64.8438 19.8626 65.5566 16.7441 66.9824 11.9785C67.2949 11.8027 67.6497 11.7148 68.0469 11.7148ZM78.7305 11.9785C79.8242 11.9785 80.5371 15.4518 80.8691 22.3984C80.5827 23.2904 80.0488 23.7363 79.2676 23.7363C78.3757 23.7363 77.9297 22.9355 77.9297 21.334V18.3945H74.9902C74.5931 18.3945 74.2383 18.4824 73.9258 18.6582C73.112 18.3132 72.666 17.9583 72.5879 17.5938V16.793C72.946 16.3568 73.125 15.9987 73.125 15.7188H75.5273C75.931 15.7188 76.2858 15.6309 76.5918 15.4551C76.9368 15.6309 77.2038 15.7188 77.3926 15.7188C77.3926 15.543 77.4837 15.4551 77.666 15.4551C77.3079 14.5566 77.1289 13.9349 77.1289 13.5898C77.5586 12.5156 78.0924 11.9785 78.7305 11.9785ZM82.7344 12.252H83.2715C84.1178 12.252 84.8307 15.722 85.4102 22.6621C85.0651 23.4759 84.7103 23.9219 84.3457 24H83.8086C82.8711 24 82.2461 21.1517 81.9336 15.4551C81.7578 15.4551 81.6699 14.8333 81.6699 13.5898C82.015 12.776 82.3698 12.3301 82.7344 12.252ZM88.6426 7.44727H94.248C94.6582 7.44727 94.9251 7.89323 95.0488 8.78516C95.0488 9.09115 94.873 9.625 94.5215 10.3867C96.6829 11.5195 97.9264 12.4082 98.252 13.0527V13.8535C98.252 14.1074 97.985 14.3743 97.4512 14.6543H96.3867C94.6875 13.4108 93.6198 12.7891 93.1836 12.7891C92.5391 14.5664 91.5592 15.4551 90.2441 15.4551L89.7168 14.6543V14.1172C89.7168 13.4987 90.4264 12.1641 91.8457 10.1133V9.84961H87.5781C87.3112 9.84961 87.0443 9.49479 86.7773 8.78516C87.181 8.78516 87.4479 8.42708 87.5781 7.71094C87.8906 7.53516 88.2454 7.44727 88.6426 7.44727ZM97.7246 16.5293C98.9681 16.8353 99.5898 17.1901 99.5898 17.5938V18.3945C99.5898 18.9284 98.877 19.2832 97.4512 19.459V19.1953C97.1582 19.3711 96.7155 19.459 96.123 19.459L96.3867 20.7969V22.1348H96.9238C98.1673 22.1348 98.7891 22.4896 98.7891 23.1992C98.9648 23.8633 99.0527 24.6641 99.0527 25.6016V26.666C98.4928 27.7337 97.5163 28.2676 96.123 28.2676H94.5215C94.1634 28.3262 93.9844 28.5052 93.9844 28.8047V29.6055C94.2643 29.6055 94.6191 29.7845 95.0488 30.1426C95.3418 30.1426 96.4095 30.0514 98.252 29.8691L99.5898 30.1426V31.207C99.5898 31.9167 98.2552 32.4505 95.5859 32.8086C92.7409 32.5417 91.3184 31.2949 91.3184 29.0684C91.3184 26.9329 93.0078 25.8652 96.3867 25.8652V25.0645L96.123 24.5371L93.4473 24.8008H91.3184C91.0579 24.8008 90.791 24.5339 90.5176 24V23.1992C90.5176 22.6198 91.5853 22.265 93.7207 22.1348V19.459H90.5176C89.5931 19.459 89.0592 19.1921 88.916 18.6582V17.8574C89.2676 17.4277 89.4434 17.0729 89.4434 16.793H93.4473C94.4759 16.793 95.9017 16.7051 97.7246 16.5293ZM127.676 5.01562C128.561 5.01562 129.183 5.81966 129.541 7.42773C129.541 7.60352 129.453 7.69141 129.277 7.69141C129.811 11.793 130.078 14.9993 130.078 17.3105V17.584C130.078 17.8379 129.811 18.1048 129.277 18.3848H127.939C127.406 16.9785 127.139 16.1777 127.139 15.9824C124.827 16.5163 123.314 16.7832 122.598 16.7832H122.324C121.615 16.4902 121.26 15.8652 121.26 14.9082V14.3711C121.26 13.6615 122.773 13.1276 125.801 12.7695H126.875V11.168C125.091 11.526 123.307 11.7051 121.523 11.7051L120.723 10.6309V10.3672C120.723 9.41016 121.081 8.78516 121.797 8.49219H122.324C123.223 8.49219 124.561 8.4043 126.338 8.22852V6.89062C126.338 5.89453 126.784 5.26953 127.676 5.01562ZM116.719 6.62695L117.246 6.89062L117.783 6.62695C118.851 6.62695 119.385 8.14062 119.385 11.168L119.121 13.5703L119.385 14.9082C119.15 15.9759 118.883 16.5098 118.584 16.5098H117.246C116.758 16.5098 116.403 15.6211 116.182 13.8438V13.0332L116.445 9.83008L110.029 10.9043C109.32 10.0775 108.965 9.45247 108.965 9.0293C108.965 7.98763 110.658 7.36263 114.043 7.1543C114.043 6.97852 114.935 6.80273 116.719 6.62695ZM122.598 19.7227V19.9863L123.125 19.7227H123.936C125.641 19.7227 126.797 21.1484 127.402 24C126.543 26.4935 125.387 27.7402 123.936 27.7402H123.398C120.371 27.3952 118.857 25.9694 118.857 23.4629V22.3887C119.854 20.6113 121.1 19.7227 122.598 19.7227ZM122.861 22.125C122.861 22.6589 122.507 22.9258 121.797 22.9258V23.4629C122.083 24.1725 122.705 24.5273 123.662 24.5273L124.463 23.7266C124.463 23.0495 123.929 22.5156 122.861 22.125ZM137.852 9.85938C138.919 10.1068 139.541 10.5495 139.717 11.1875V12.5254L139.453 15.7285C142.298 17.9421 143.721 19.5404 143.721 20.5234V20.7969C143.721 21.0508 143.454 21.3177 142.92 21.5977H142.119L138.652 18.3945C138.411 20.8815 137.786 22.125 136.777 22.125C135.892 21.9492 135.449 21.4154 135.449 20.5234C135.625 18.8503 136.159 16.2721 137.051 12.7891L136.514 12.5254H135.977C135.579 12.5254 135.225 12.6133 134.912 12.7891L134.385 12.5254C134.04 12.7012 133.773 12.7891 133.584 12.7891V12.5254L133.047 12.7891C131.979 12.7891 131.445 12.2552 131.445 11.1875C131.712 10.4779 131.979 10.123 132.246 10.123H136.25L137.852 9.85938ZM147.725 10.123H148.252C149.033 10.123 150.013 13.4141 151.191 19.9961H150.918C151.204 20.5625 151.471 21.3633 151.719 22.3984C151.367 22.3984 151.191 22.5742 151.191 22.9258H149.316C148.965 22.125 148.522 20.1686 147.988 17.0566C147.012 17.4147 145.498 17.5938 143.447 17.5938C142.738 17.418 142.383 16.7962 142.383 15.7285C142.383 15.3704 144.072 15.0124 147.451 14.6543C147.1 13.0592 146.924 11.9036 146.924 11.1875V10.9238C146.924 10.6699 147.191 10.403 147.725 10.123ZM152.793 11.1875H153.32C154.147 11.1875 155.215 14.8333 156.523 22.125C155.794 22.4831 155.26 22.6621 154.922 22.6621C153.984 22.6621 153.275 20.4388 152.793 15.9922C152.611 15.9922 152.253 14.6576 151.719 11.9883L152.793 11.1875Z" fill="black"/>
<path d="M3.15139 20.9941C3.15139 22.3221 3.02007 23.7201 3.34327 25.0129C3.76909 26.7161 5.08907 28.2592 6.26405 29.4793C7.2522 30.5055 8.03817 31.8367 9.47264 32.3148C10.9875 32.8198 12.5593 33.9956 14.1736 34.0417C15.8088 34.0884 17.8745 34.3147 19.3756 33.3595C20.738 32.4925 22.3361 31.8286 23.2984 30.4387C24.7105 28.3989 24.9662 25.7163 25.9846 23.4885C26.1859 23.0482 26.3655 22.6796 26.5603 22.2413C26.813 21.6728 26.7256 20.8403 27.1466 21.8576C27.8484 23.5537 28.9247 25.2397 30.2059 26.5585C31.3921 27.7796 32.6758 29.6061 34.3206 30.2042C35.0271 30.4611 35.6678 31.0606 36.3886 31.3554C37.6196 31.859 39.2589 32.434 40.5672 32.5067C41.7096 32.5702 42.7913 32.8905 43.957 32.8905C45.0628 32.8905 46.9138 33.2207 47.9438 32.6026C49.3264 31.7731 50.674 30.2392 51.0778 28.6692C51.4465 27.2353 51.8069 25.805 52.0691 24.3626C52.1712 23.8011 52.3555 21.228 51.8879 20.9941" stroke="black" stroke-width="3" stroke-linecap="round"/>
<path d="M2.19141 16.1976C6.35583 16.1976 10.5202 16.1976 14.6847 16.1976C16.6231 16.1976 18.5061 16.0057 20.4196 16.0057C22.5782 16.0057 24.9449 15.4498 27.0607 15.9097C29.695 16.4824 32.7463 16.0057 35.4712 16.0057C37.9088 16.0057 40.3463 16.0057 42.7839 16.0057C45.9268 16.0057 49.1781 16.3894 52.2711 16.3894" stroke="black" stroke-width="3" stroke-linecap="round"/>
<path d="M52.4639 10.9397C49.565 10.9397 46.637 10.5559 43.7228 10.5559C39.7293 10.5559 35.7396 10.364 31.7413 10.364C27.5981 10.364 23.455 10.364 19.3119 10.364C18.5902 10.364 17.9173 10.1722 17.2013 10.1722C16.0409 10.1722 14.786 10.3226 13.6623 10.0229C12.3625 9.67633 10.9047 10.1722 9.63286 10.1722C7.08228 10.1722 4.57317 10.364 2.00046 10.364" stroke="black" stroke-width="3" stroke-linecap="round"/>
<path d="M2 6.03976C4.89892 6.03976 7.82692 5.65601 10.741 5.65601C14.7346 5.65601 18.7243 5.46414 22.7226 5.46414C26.8657 5.46414 31.0088 5.46414 35.1519 5.46414C35.8737 5.46414 36.5465 5.27226 37.2626 5.27226C38.423 5.27226 39.6779 5.42267 40.8016 5.12302C42.1013 4.77643 43.5592 5.27226 44.831 5.27226C47.3816 5.27226 49.8907 5.46414 52.4634 5.46414" stroke="black" stroke-width="3" stroke-linecap="round"/>
</svg>
